<svg version="1.1" xmlns="http://www.w3.org/2000/svg" xmlns:xlink="http://www.w3.org/1999/xlink" width="800" height="500" viewBox="0,0,800,500"><defs><linearGradient x1="-170.05731" y1="-84.39084" x2="81.05252" y2="-84.39084" gradientUnits="userSpaceOnUse" id="color-1"><stop offset="0" stop-color="#00c6fb"/><stop offset="1" stop-color="#005bea"/></linearGradient></defs><g fill="none" fill-rule="nonzero" stroke="none" stroke-width="none" stroke-linecap="butt" stroke-linejoin="miter" stroke-miterlimit="10" stroke-dasharray="" stroke-dashoffset="0" font-family="none" font-weight="none" font-size="none" text-anchor="none" style="mix-blend-mode: normal"><path d="M0,500v-500h800v500z" fill="#ffffff" stroke="none" stroke-width="1"/><g fill="none" stroke="none" stroke-width="1" font-family="sans-serif" font-weight="normal" font-size="12" text-anchor="start"/><g fill="none" stroke="none" stroke-width="1" font-family="sans-serif" font-weight="normal" font-size="12" text-anchor="start"/><g fill="none" stroke="none" stroke-width="1" font-family="sans-serif" font-weight="normal" font-size="12" text-anchor="start"/><g fill="none" stroke="none" stroke-width="1" font-family="sans-serif" font-weight="normal" font-size="12" text-anchor="start"/><g fill="none" stroke="none" stroke-width="1" font-family="sans-serif" font-weight="normal" font-size="12" text-anchor="start"/><g fill="none" stroke="none" stroke-width="1" font-family="sans-serif" font-weight="normal" font-size="12" text-anchor="start"/><g fill="none" stroke="none" stroke-width="1" font-family="sans-serif" font-weight="normal" font-size="12" text-anchor="start"/><g fill="none" stroke="none" stroke-width="1" font-family="sans-serif" font-weight="normal" font-size="12" text-anchor="start"/><g fill="none" stroke="none" stroke-width="1" font-family="sans-serif" font-weight="normal" font-size="12" text-anchor="start"/><g fill="none" stroke="none" stroke-width="1" font-family="sans-serif" font-weight="normal" font-size="12" text-anchor="start"/><g fill="none" stroke="none" stroke-width="1" font-family="sans-serif" font-weight="normal" font-size="12" text-anchor="start"/><g fill="none" stroke="none" stroke-width="1" font-family="sans-serif" font-weight="normal" font-size="12" text-anchor="start"/><g fill="none" stroke="none" stroke-width="1" font-family="sans-serif" font-weight="normal" font-size="12" text-anchor="start"/><g fill="none" stroke="none" stroke-width="1" font-family="sans-serif" font-weight="normal" font-size="12" text-anchor="start"/><g fill="none" stroke="none" stroke-width="1" font-family="sans-serif" font-weight="normal" font-size="12" text-anchor="start"/><g fill="none" stroke="none" stroke-width="1" font-family="sans-serif" font-weight="normal" font-size="12" text-anchor="start"/><g fill="none" stroke="none" stroke-width="1" font-family="sans-serif" font-weight="normal" font-size="12" text-anchor="start"/><g fill="none" stroke="none" stroke-width="1" font-family="sans-serif" font-weight="normal" font-size="12" text-anchor="start"/><g fill="none" stroke="none" stroke-width="1" font-family="sans-serif" font-weight="normal" font-size="12" text-anchor="start"/><g fill="none" stroke="none" stroke-width="1" font-family="sans-serif" font-weight="normal" font-size="12" text-anchor="start"/><g fill="none" stroke="none" stroke-width="1" font-family="sans-serif" font-weight="normal" font-size="12" text-anchor="start"/><g fill="none" stroke="none" stroke-width="1" font-family="sans-serif" font-weight="normal" font-size="12" text-anchor="start"/><g fill="none" stroke="none" stroke-width="1" font-family="sans-serif" font-weight="normal" font-size="12" text-anchor="start"/><g fill="none" stroke="none" stroke-width="1" font-family="sans-serif" font-weight="normal" font-size="12" text-anchor="start"/><g fill="none" stroke="none" stroke-width="1" font-family="sans-serif" font-weight="normal" font-size="12" text-anchor="start"/><g fill="none" stroke="none" stroke-width="1" font-family="sans-serif" font-weight="normal" font-size="12" text-anchor="start"/><g fill="none" stroke="none" stroke-width="1" font-family="sans-serif" font-weight="normal" font-size="12" text-anchor="start"/><g fill="none" stroke="none" stroke-width="1" font-family="sans-serif" font-weight="normal" font-size="12" text-anchor="start"/><g fill="none" stroke="none" stroke-width="1" font-family="sans-serif" font-weight="normal" font-size="12" text-anchor="start"/><g fill="none" stroke="none" stroke-width="1" font-family="sans-serif" font-weight="normal" font-size="12" text-anchor="start"/><g fill="none" stroke="none" stroke-width="1" font-family="sans-serif" font-weight="normal" font-size="12" text-anchor="start"/><g fill="none" stroke="none" stroke-width="1" font-family="sans-serif" font-weight="normal" font-size="12" text-anchor="start"/><g fill="none" stroke="none" stroke-width="1" font-family="sans-serif" font-weight="normal" font-size="12" text-anchor="start"/><g fill="none" stroke="none" stroke-width="1" font-family="sans-serif" font-weight="normal" font-size="12" text-anchor="start"/><g fill="none" stroke="none" stroke-width="1" font-family="sans-serif" font-weight="normal" font-size="12" text-anchor="start"/><g fill="none" stroke="none" stroke-width="1" font-family="sans-serif" font-weight="normal" font-size="12" text-anchor="start"/><g fill="none" stroke="none" stroke-width="1" font-family="sans-serif" font-weight="normal" font-size="12" text-anchor="start"/><g fill="none" stroke="none" stroke-width="1" font-family="sans-serif" font-weight="normal" font-size="12" text-anchor="start"/><g fill="none" stroke="none" stroke-width="1" font-family="sans-serif" font-weight="normal" font-size="12" text-anchor="start"/><g fill="none" stroke="none" stroke-width="1" font-family="sans-serif" font-weight="normal" font-size="12" text-anchor="start"/><g fill="none" stroke="none" stroke-width="1" font-family="sans-serif" font-weight="normal" font-size="12" text-anchor="start"/><g fill="none" stroke="none" stroke-width="1" font-family="sans-serif" font-weight="normal" font-size="12" text-anchor="start"/><g fill="none" stroke="none" stroke-width="1" font-family="sans-serif" font-weight="normal" font-size="12" text-anchor="start"/><g fill="none" stroke="none" stroke-width="1" font-family="sans-serif" font-weight="normal" font-size="12" text-anchor="start"/><g fill="none" stroke="none" stroke-width="1" font-family="sans-serif" font-weight="normal" font-size="12" text-anchor="start"/><g fill="none" stroke="none" stroke-width="1" font-family="sans-serif" font-weight="normal" font-size="12" text-anchor="start"/><g fill="none" stroke="none" stroke-width="1" font-family="sans-serif" font-weight="normal" font-size="12" text-anchor="start"/><g fill="none" stroke="none" stroke-width="1" font-family="sans-serif" font-weight="normal" font-size="12" text-anchor="start"/><g fill="none" stroke="none" stroke-width="1" font-family="sans-serif" font-weight="normal" font-size="12" text-anchor="start"/><g fill="none" stroke="none" stroke-width="1" font-family="sans-serif" font-weight="normal" font-size="12" text-anchor="start"/><g fill="none" stroke="none" stroke-width="1" font-family="sans-serif" font-weight="normal" font-size="12" text-anchor="start"/><g fill="none" stroke="none" stroke-width="1" font-family="sans-serif" font-weight="normal" font-size="12" text-anchor="start"/><g fill="none" stroke="none" stroke-width="1" font-family="sans-serif" font-weight="normal" font-size="12" text-anchor="start"/><g fill="none" stroke="none" stroke-width="1" font-family="sans-serif" font-weight="normal" font-size="12" text-anchor="start"/><g fill="none" stroke="none" stroke-width="1" font-family="sans-serif" font-weight="normal" font-size="12" text-anchor="start"/><g fill="none" stroke="none" stroke-width="1" font-family="sans-serif" font-weight="normal" font-size="12" text-anchor="start"/><g fill="none" stroke="none" stroke-width="1" font-family="sans-serif" font-weight="normal" font-size="12" text-anchor="start"/><g fill="none" stroke="none" stroke-width="1" font-family="sans-serif" font-weight="normal" font-size="12" text-anchor="start"/><g fill="none" stroke="none" stroke-width="1" font-family="sans-serif" font-weight="normal" font-size="12" text-anchor="start"/><g fill="none" stroke="none" stroke-width="1" font-family="sans-serif" font-weight="normal" font-size="12" text-anchor="start"/><g fill="none" stroke="none" stroke-width="1" font-family="sans-serif" font-weight="normal" font-size="12" text-anchor="start"/><g fill="none" stroke="none" stroke-width="1" font-family="sans-serif" font-weight="normal" font-size="12" text-anchor="start"/><g fill="none" stroke="none" stroke-width="1" font-family="sans-serif" font-weight="normal" font-size="12" text-anchor="start"/><g><path d="M339.8754,284.15299c1.48133,-24.15607 0,-148.11287 0,-148.11287h21.87073c0,0 0.7433,125.54229 0,148.11287c-0.22056,6.69737 -0.25826,8.8227 -0.85802,13.01289c-0.57232,3.99844 -1.3978,7.90532 -2.57407,11.59257c-1.13417,3.55525 -2.55121,6.99133 -4.29012,10.17226c-1.70509,3.11906 -3.75125,6.09614 -6.00617,8.75194c-2.20963,2.60247 -4.70357,5.02416 -7.35731,7.05407c-2.59866,1.98778 -5.42159,3.69657 -8.3751,5.03862c-2.9676,1.34845 -6.14385,2.35121 -9.39289,3.02317c-3.34507,0.69182 -10.41069,1.00772 -10.41069,1.00772c0,0 -7.51142,-0.28718 -11.06357,-0.93771c-3.41484,-0.62538 -6.75056,-1.54378 -9.86826,-2.81312c-3.05597,-1.24421 -5.98641,-2.81883 -8.67294,-4.68854c-2.69887,-1.8783 -5.24704,-4.10445 -7.47763,-6.56396c-2.2649,-2.49734 -4.30356,-5.32257 -5.98447,-8.33185c-1.73056,-3.09817 -3.10536,-6.50156 -4.19347,-10.03223c-1.14195,-3.70536 -1.89707,-7.66888 -2.40247,-11.7326c-0.53553,-4.30604 -0.80116,-11.64698 -0.61147,-13.43298c0.04822,-0.45396 0.22092,-0.84019 0.22092,-0.84019h20.98706c0,0 0.13623,6.05134 0.47339,8.89948c0.31592,2.66865 0.75791,5.26489 1.42018,7.69421c0.62225,2.28252 1.38649,4.48467 2.36696,6.48894c0.93168,1.90453 1.72426,3.54263 3.31375,5.28367c2.16173,2.36785 5.68652,5.43722 9.17592,6.99155c3.63731,1.62022 8.33801,2.4179 12.31609,2.33052c3.77276,-0.08288 7.70958,-0.89043 10.97481,-2.58057c3.32392,-1.72052 6.37656,-4.59066 8.74987,-7.74172c2.53914,-3.37123 4.4716,-7.67973 5.75172,-12.07268c1.38665,-4.75851 1.43509,-7.71105 1.91724,-15.57346zM459.9277,340.84557c-12.19711,0.48408 -59.71056,0 -59.71056,0v-204.80545c0,0 41.36978,-0.41038 52.70435,0c5.40808,0.19581 8.12452,0.2606 11.96696,0.86769c3.66326,0.57878 7.23912,1.41559 10.59018,2.60308c3.23829,1.14752 6.35555,2.58742 9.2134,4.33846c2.81986,1.72777 5.48949,3.76963 7.83662,6.07385c2.35676,2.31367 4.4922,4.94573 6.2685,7.78673c1.82204,2.91415 3.29667,6.14792 4.4775,9.51711c1.23817,3.53277 2.089,7.33843 2.6865,11.2475c0.63373,4.14609 1.03237,8.6634 0.8955,12.97788c-0.13702,4.31913 -0.55301,8.82333 -1.71999,12.92287c-1.14675,4.02845 -2.95469,7.9903 -5.15998,11.48255c-2.17958,3.45153 -4.93018,6.70368 -7.96088,9.37208c-3.00382,2.64473 -10.12271,6.59146 -10.12271,6.59146c0,0 4.74177,1.52691 6.92928,2.62058c2.16818,1.08401 4.23678,2.39868 6.14424,3.90087c1.93042,1.52027 3.72393,3.27537 5.3592,5.18115c1.68522,1.964 3.08029,3.74297 4.57415,6.46143c2.16342,3.93689 4.89656,9.96194 6.29612,15.36341c1.44944,5.59397 1.96071,12.20985 2.09871,17.68392c0.1191,4.72421 -0.26486,8.99423 -0.89747,13.23294c-0.59876,4.01185 -1.45482,7.92191 -2.69242,11.57257c-1.18432,3.4935 -2.66312,6.8544 -4.48737,9.9122c-1.78102,2.98535 -3.91575,5.78522 -6.28231,8.25183c-2.34421,2.44331 -5.01399,4.64002 -7.83464,6.49394c-2.82748,1.85841 -5.90768,3.40913 -9.1128,4.63853c-3.28742,1.26096 -6.79756,2.16438 -10.39096,2.78312c-3.74851,0.64545 -6.26861,0.71337 -11.66912,0.92771zM463.14677,244.78425h-41.0589v74.41652c0,0 28.49239,0.82038 37.83983,0c5.57012,-0.48886 9.29366,-0.70139 13.23132,-2.34052c3.75056,-1.56125 7.59691,-4.65029 9.96491,-7.02156c1.7046,-1.70695 2.60286,-3.31247 3.63131,-5.16865c1.05673,-1.90722 1.90928,-3.98728 2.5938,-6.14386c0.71554,-2.25433 1.2102,-4.65632 1.55628,-7.11908c0.36512,-2.59822 0.58669,-4.94135 0.51876,-8.0943c-0.09591,-4.45128 -0.45337,-11.16912 -1.72788,-16.07357c-1.1546,-4.44301 -3.31803,-9.24532 -5.18365,-12.21271c-1.25107,-1.9899 -2.45988,-3.19575 -3.93902,-4.48099c-1.46229,-1.2706 -3.11808,-2.35213 -4.87397,-3.20071c-1.79861,-0.86922 -3.77515,-1.4934 -5.80892,-1.92043c-2.14004,-0.44934 -6.74387,-0.64014 -6.74387,-0.64014zM422.08787,157.84496v65.25448c0,0 26.97516,0.80171 35.40975,0c4.75533,-0.45199 7.72168,-0.68096 11.05371,-2.12047c3.27244,-1.41376 6.40095,-3.67496 8.79721,-6.36141c2.48674,-2.78789 4.45328,-6.42253 5.72805,-10.19226c1.37826,-4.07578 1.76581,-9.63851 1.90935,-13.533c0.10829,-2.93814 -0.1506,-5.28159 -0.51679,-7.76172c-0.34483,-2.33548 -0.83436,-4.60892 -1.55036,-6.72149c-0.68106,-2.0095 -1.52954,-3.93998 -2.58393,-5.68126c-1.0238,-1.69076 -1.93066,-3.13243 -3.61751,-4.64103c-2.39012,-2.13756 -6.29628,-4.80559 -10.06748,-6.18137c-4.08803,-1.49137 -13.72838,-2.06046 -13.72838,-2.06046z" fill="url(#color-1)" stroke="none" stroke-width="0"/><path d="M262.18497,136.04012c41.85164,0 83.70328,0 125.55491,0c41.85164,0 83.70328,0 125.55491,0" fill="none" stroke="#000000" stroke-width="2" visibility="hidden"/><path d="M262.18497,343.80623c41.85164,0 83.70328,0 125.55491,0c41.85164,0 83.70328,0 125.55491,0" fill="none" stroke="#000000" stroke-width="2" visibility="hidden"/></g></g></svg>